<?xml version="1.0" encoding="utf-8" standalone="no"?>
<!DOCTYPE svg PUBLIC "-//W3C//DTD SVG 1.1//EN"
  "http://www.w3.org/Graphics/SVG/1.1/DTD/svg11.dtd">
<!-- Created with matplotlib (https://matplotlib.org/) -->
<svg height="280.45375pt" version="1.1" viewBox="0 0 426.942187 280.45375" width="426.942187pt" xmlns="http://www.w3.org/2000/svg" xmlns:xlink="http://www.w3.org/1999/xlink">
 <defs>
  <style type="text/css">
*{stroke-linecap:butt;stroke-linejoin:round;}
  </style>
 </defs>
 <g id="figure_1">
  <g id="patch_1">
   <path d="M 0 280.45375 
L 426.942187 280.45375 
L 426.942187 0 
L 0 0 
z
" style="fill:#ffffff;"/>
  </g>
  <g id="axes_1">
   <g id="patch_2">
    <path d="M 50.104688 245.377813 
L 416.242188 245.377813 
L 416.242188 23.837812 
L 50.104688 23.837812 
z
" style="fill:#ffffff;"/>
   </g>
   <g id="patch_3">
    <path clip-path="url(#p780c04eea3)" d="M 66.747301 245.377813 
L 90.522463 245.377813 
L 90.522463 239.25975 
L 66.747301 239.25975 
z
" style="fill:#df6060;"/>
   </g>
   <g id="patch_4">
    <path clip-path="url(#p780c04eea3)" d="M 185.623113 245.377813 
L 209.398275 245.377813 
L 209.398275 34.387336 
L 185.623113 34.387336 
z
" style="fill:#df6060;"/>
   </g>
   <g id="patch_5">
    <path clip-path="url(#p780c04eea3)" d="M 304.498925 245.377813 
L 328.274087 245.377813 
L 328.274087 239.425103 
L 304.498925 239.425103 
z
" style="fill:#df6060;"/>
   </g>
   <g id="patch_6">
    <path clip-path="url(#p780c04eea3)" d="M 90.522463 245.377813 
L 114.297626 245.377813 
L 114.297626 242.732164 
L 90.522463 242.732164 
z
" style="fill:#b0df60;"/>
   </g>
   <g id="patch_7">
    <path clip-path="url(#p780c04eea3)" d="M 209.398275 245.377813 
L 233.173437 245.377813 
L 233.173437 242.732164 
L 209.398275 242.732164 
z
" style="fill:#b0df60;"/>
   </g>
   <g id="patch_8">
    <path clip-path="url(#p780c04eea3)" d="M 328.274087 245.377813 
L 352.049249 245.377813 
L 352.049249 167.827238 
L 328.274087 167.827238 
z
" style="fill:#b0df60;"/>
   </g>
   <g id="patch_9">
    <path clip-path="url(#p780c04eea3)" d="M 114.297626 245.377813 
L 138.072788 245.377813 
L 138.072788 243.393576 
L 114.297626 243.393576 
z
" style="fill:#60df87;"/>
   </g>
   <g id="patch_10">
    <path clip-path="url(#p780c04eea3)" d="M 233.173437 245.377813 
L 256.9486 245.377813 
L 256.9486 244.054988 
L 233.173437 244.054988 
z
" style="fill:#60df87;"/>
   </g>
   <g id="patch_11">
    <path clip-path="url(#p780c04eea3)" d="M 352.049249 245.377813 
L 375.824412 245.377813 
L 375.824412 229.338568 
L 352.049249 229.338568 
z
" style="fill:#60df87;"/>
   </g>
   <g id="patch_12">
    <path clip-path="url(#p780c04eea3)" d="M 138.072788 245.377813 
L 161.84795 245.377813 
L 161.84795 244.054988 
L 138.072788 244.054988 
z
" style="fill:#1f77b4;"/>
   </g>
   <g id="patch_13">
    <path clip-path="url(#p780c04eea3)" d="M 256.9486 245.377813 
L 280.723762 245.377813 
L 280.723762 244.551047 
L 256.9486 244.551047 
z
" style="fill:#1f77b4;"/>
   </g>
   <g id="patch_14">
    <path clip-path="url(#p780c04eea3)" d="M 375.824412 245.377813 
L 399.599574 245.377813 
L 399.599574 244.220341 
L 375.824412 244.220341 
z
" style="fill:#1f77b4;"/>
   </g>
   <g id="matplotlib.axis_1">
    <g id="xtick_1">
     <g id="line2d_1">
      <defs>
       <path d="M 0 0 
L 0 3.5 
" id="m3850f438ae" style="stroke:#000000;stroke-width:0.8;"/>
      </defs>
      <g>
       <use style="stroke:#000000;stroke-width:0.8;" x="114.297626" xlink:href="#m3850f438ae" y="245.377813"/>
      </g>
     </g>
     <g id="text_1">
      <text style="font-family:DejaVu Sans;font-size:10px;font-style:normal;font-weight:normal;text-anchor:middle;" transform="rotate(-0, 114.297626, 259.97625)" x="114.297626" y="259.97625">Original model</text>
     </g>
    </g>
    <g id="xtick_2">
     <g id="line2d_2">
      <g>
       <use style="stroke:#000000;stroke-width:0.8;" x="233.173437" xlink:href="#m3850f438ae" y="245.377813"/>
      </g>
     </g>
     <g id="text_2">
      <text style="font-family:DejaVu Sans;font-size:10px;font-style:normal;font-weight:normal;" transform="translate(188.901562 259.97625)">Buzzsaw obstacle</text>
      <text style="font-family:DejaVu Sans;font-size:10px;font-style:normal;font-weight:normal;" transform="translate(209.423437 271.174063)">blindness</text>
     </g>
    </g>
    <g id="xtick_3">
     <g id="line2d_3">
      <g>
       <use style="stroke:#000000;stroke-width:0.8;" x="352.049249" xlink:href="#m3850f438ae" y="245.377813"/>
      </g>
     </g>
     <g id="text_3">
      <text style="font-family:DejaVu Sans;font-size:10px;font-style:normal;font-weight:normal;" transform="translate(304.830499 259.97625)">Enemy moving left</text>
      <text style="font-family:DejaVu Sans;font-size:10px;font-style:normal;font-weight:normal;" transform="translate(328.299249 271.174063)">blindness</text>
     </g>
    </g>
   </g>
   <g id="matplotlib.axis_2">
    <g id="ytick_1">
     <g id="line2d_4">
      <defs>
       <path d="M 0 0 
L -3.5 0 
" id="m11790fd33d" style="stroke:#000000;stroke-width:0.8;"/>
      </defs>
      <g>
       <use style="stroke:#000000;stroke-width:0.8;" x="50.104688" xlink:href="#m11790fd33d" y="245.377813"/>
      </g>
     </g>
     <g id="text_4">
      <text style="font-family:DejaVu Sans;font-size:10px;font-style:normal;font-weight:normal;text-anchor:end;" transform="rotate(-0, 43.104688, 249.177031)" x="43.104688" y="249.177031">0%</text>
     </g>
    </g>
    <g id="ytick_2">
     <g id="line2d_5">
      <g>
       <use style="stroke:#000000;stroke-width:0.8;" x="50.104688" xlink:href="#m11790fd33d" y="212.307205"/>
      </g>
     </g>
     <g id="text_5">
      <text style="font-family:DejaVu Sans;font-size:10px;font-style:normal;font-weight:normal;text-anchor:end;" transform="rotate(-0, 43.104688, 216.106424)" x="43.104688" y="216.106424">2%</text>
     </g>
    </g>
    <g id="ytick_3">
     <g id="line2d_6">
      <g>
       <use style="stroke:#000000;stroke-width:0.8;" x="50.104688" xlink:href="#m11790fd33d" y="179.236597"/>
      </g>
     </g>
     <g id="text_6">
      <text style="font-family:DejaVu Sans;font-size:10px;font-style:normal;font-weight:normal;text-anchor:end;" transform="rotate(-0, 43.104688, 183.035816)" x="43.104688" y="183.035816">4%</text>
     </g>
    </g>
    <g id="ytick_4">
     <g id="line2d_7">
      <g>
       <use style="stroke:#000000;stroke-width:0.8;" x="50.104688" xlink:href="#m11790fd33d" y="146.16599"/>
      </g>
     </g>
     <g id="text_7">
      <text style="font-family:DejaVu Sans;font-size:10px;font-style:normal;font-weight:normal;text-anchor:end;" transform="rotate(-0, 43.104688, 149.965209)" x="43.104688" y="149.965209">6%</text>
     </g>
    </g>
    <g id="ytick_5">
     <g id="line2d_8">
      <g>
       <use style="stroke:#000000;stroke-width:0.8;" x="50.104688" xlink:href="#m11790fd33d" y="113.095382"/>
      </g>
     </g>
     <g id="text_8">
      <text style="font-family:DejaVu Sans;font-size:10px;font-style:normal;font-weight:normal;text-anchor:end;" transform="rotate(-0, 43.104688, 116.894601)" x="43.104688" y="116.894601">8%</text>
     </g>
    </g>
    <g id="ytick_6">
     <g id="line2d_9">
      <g>
       <use style="stroke:#000000;stroke-width:0.8;" x="50.104688" xlink:href="#m11790fd33d" y="80.024775"/>
      </g>
     </g>
     <g id="text_9">
      <text style="font-family:DejaVu Sans;font-size:10px;font-style:normal;font-weight:normal;text-anchor:end;" transform="rotate(-0, 43.104688, 83.823993)" x="43.104688" y="83.823993">10%</text>
     </g>
    </g>
    <g id="ytick_7">
     <g id="line2d_10">
      <g>
       <use style="stroke:#000000;stroke-width:0.8;" x="50.104688" xlink:href="#m11790fd33d" y="46.954167"/>
      </g>
     </g>
     <g id="text_10">
      <text style="font-family:DejaVu Sans;font-size:10px;font-style:normal;font-weight:normal;text-anchor:end;" transform="rotate(-0, 43.104688, 50.753386)" x="43.104688" y="50.753386">12%</text>
     </g>
    </g>
    <g id="text_11">
     <text style="font-family:DejaVu Sans;font-size:10px;font-style:normal;font-weight:normal;text-anchor:middle;" transform="rotate(-90, 14.798438, 134.607813)" x="14.798438" y="134.607813">Percentage of levels failed</text>
    </g>
   </g>
   <g id="patch_15">
    <path d="M 50.104688 245.377813 
L 50.104688 23.837813 
" style="fill:none;stroke:#000000;stroke-linecap:square;stroke-linejoin:miter;stroke-width:0.8;"/>
   </g>
   <g id="patch_16">
    <path d="M 416.242188 245.377813 
L 416.242188 23.837813 
" style="fill:none;stroke:#000000;stroke-linecap:square;stroke-linejoin:miter;stroke-width:0.8;"/>
   </g>
   <g id="patch_17">
    <path d="M 50.104687 245.377813 
L 416.242188 245.377813 
" style="fill:none;stroke:#000000;stroke-linecap:square;stroke-linejoin:miter;stroke-width:0.8;"/>
   </g>
   <g id="patch_18">
    <path d="M 50.104687 23.837812 
L 416.242188 23.837812 
" style="fill:none;stroke:#000000;stroke-linecap:square;stroke-linejoin:miter;stroke-width:0.8;"/>
   </g>
   <g id="text_12">
    <text style="font-family:DejaVu Sans;font-size:14px;font-style:normal;font-weight:normal;text-anchor:middle;" transform="rotate(-0, 233.173438, 17.837812)" x="233.173438" y="17.837812">Failure rate by cause</text>
   </g>
   <g id="legend_1">
    <g id="patch_19">
     <path d="M 275.679688 105.228437 
L 409.242188 105.228437 
Q 411.242188 105.228437 411.242188 103.228437 
L 411.242188 30.837812 
Q 411.242188 28.837812 409.242188 28.837812 
L 275.679688 28.837812 
Q 273.679688 28.837812 273.679688 30.837812 
L 273.679688 103.228437 
Q 273.679688 105.228437 275.679688 105.228437 
z
" style="fill:#ffffff;opacity:0.8;stroke:#cccccc;stroke-linejoin:miter;"/>
    </g>
    <g id="text_13">
     <text style="font-family:DejaVu Sans;font-size:10px;font-style:normal;font-weight:bold;text-anchor:start;" transform="rotate(-0, 322.514844, 40.43625)" x="322.514844" y="40.43625">Causes</text>
    </g>
    <g id="patch_20">
     <path d="M 277.679688 55.114375 
L 297.679688 55.114375 
L 297.679688 48.114375 
L 277.679688 48.114375 
z
" style="fill:#df6060;"/>
    </g>
    <g id="text_14">
     <text style="font-family:DejaVu Sans;font-size:10px;font-style:normal;font-weight:normal;text-anchor:start;" transform="rotate(-0, 305.679688, 55.114375)" x="305.679688" y="55.114375">Buzzsaw obstacle</text>
    </g>
    <g id="patch_21">
     <path d="M 277.679688 69.7925 
L 297.679688 69.7925 
L 297.679688 62.7925 
L 277.679688 62.7925 
z
" style="fill:#b0df60;"/>
    </g>
    <g id="text_15">
     <text style="font-family:DejaVu Sans;font-size:10px;font-style:normal;font-weight:normal;text-anchor:start;" transform="rotate(-0, 305.679688, 69.7925)" x="305.679688" y="69.7925">Enemy moving left</text>
    </g>
    <g id="patch_22">
     <path d="M 277.679688 84.470625 
L 297.679688 84.470625 
L 297.679688 77.470625 
L 277.679688 77.470625 
z
" style="fill:#60df87;"/>
    </g>
    <g id="text_16">
     <text style="font-family:DejaVu Sans;font-size:10px;font-style:normal;font-weight:normal;text-anchor:start;" transform="rotate(-0, 305.679688, 84.470625)" x="305.679688" y="84.470625">Enemy moving right</text>
    </g>
    <g id="patch_23">
     <path d="M 277.679688 99.14875 
L 297.679688 99.14875 
L 297.679688 92.14875 
L 277.679688 92.14875 
z
" style="fill:#1f77b4;"/>
    </g>
    <g id="text_17">
     <text style="font-family:DejaVu Sans;font-size:10px;font-style:normal;font-weight:normal;text-anchor:start;" transform="rotate(-0, 305.679688, 99.14875)" x="305.679688" y="99.14875">Multiple or other</text>
    </g>
   </g>
  </g>
 </g>
 <defs>
  <clipPath id="p780c04eea3">
   <rect height="221.54" width="366.1375" x="50.104688" y="23.837812"/>
  </clipPath>
 </defs>
</svg>
