<?xml version="1.0" encoding="utf-8" standalone="no"?>
<!DOCTYPE svg PUBLIC "-//W3C//DTD SVG 1.1//EN"
  "http://www.w3.org/Graphics/SVG/1.1/DTD/svg11.dtd">
<!-- Created with matplotlib (https://matplotlib.org/) -->
<svg height="280.715938pt" version="1.1" viewBox="0 0 426.942187 280.715938" width="426.942187pt" xmlns="http://www.w3.org/2000/svg" xmlns:xlink="http://www.w3.org/1999/xlink">
 <defs>
  <style type="text/css">
*{stroke-linecap:butt;stroke-linejoin:round;}
  </style>
 </defs>
 <g id="figure_1">
  <g id="patch_1">
   <path d="M 0 280.715938 
L 426.942187 280.715938 
L 426.942187 0 
L 0 0 
z
" style="fill:#ffffff;"/>
  </g>
  <g id="axes_1">
   <g id="patch_2">
    <path d="M 50.104688 256.837813 
L 416.242188 256.837813 
L 416.242188 23.837813 
L 50.104688 23.837813 
z
" style="fill:#ffffff;"/>
   </g>
   <g id="patch_3">
    <path clip-path="url(#p0d12596759)" d="M 66.747301 256.837813 
L 90.522463 256.837813 
L 90.522463 250.40327 
L 66.747301 250.40327 
z
" style="fill:#df6060;"/>
   </g>
   <g id="patch_4">
    <path clip-path="url(#p0d12596759)" d="M 185.623113 256.837813 
L 209.398275 256.837813 
L 209.398275 34.933051 
L 185.623113 34.933051 
z
" style="fill:#df6060;"/>
   </g>
   <g id="patch_5">
    <path clip-path="url(#p0d12596759)" d="M 304.498925 256.837813 
L 328.274087 256.837813 
L 328.274087 250.577177 
L 304.498925 250.577177 
z
" style="fill:#df6060;"/>
   </g>
   <g id="patch_6">
    <path clip-path="url(#p0d12596759)" d="M 90.522463 256.837813 
L 114.297626 256.837813 
L 114.297626 254.055308 
L 90.522463 254.055308 
z
" style="fill:#b0df60;"/>
   </g>
   <g id="patch_7">
    <path clip-path="url(#p0d12596759)" d="M 209.398275 256.837813 
L 233.173437 256.837813 
L 233.173437 254.055308 
L 209.398275 254.055308 
z
" style="fill:#b0df60;"/>
   </g>
   <g id="patch_8">
    <path clip-path="url(#p0d12596759)" d="M 328.274087 256.837813 
L 352.049249 256.837813 
L 352.049249 175.275639 
L 328.274087 175.275639 
z
" style="fill:#b0df60;"/>
   </g>
   <g id="patch_9">
    <path clip-path="url(#p0d12596759)" d="M 114.297626 256.837813 
L 138.072788 256.837813 
L 138.072788 254.750934 
L 114.297626 254.750934 
z
" style="fill:#60df87;"/>
   </g>
   <g id="patch_10">
    <path clip-path="url(#p0d12596759)" d="M 233.173437 256.837813 
L 256.9486 256.837813 
L 256.9486 255.44656 
L 233.173437 255.44656 
z
" style="fill:#60df87;"/>
   </g>
   <g id="patch_11">
    <path clip-path="url(#p0d12596759)" d="M 352.049249 256.837813 
L 375.824412 256.837813 
L 375.824412 239.968877 
L 352.049249 239.968877 
z
" style="fill:#60df87;"/>
   </g>
   <g id="patch_12">
    <path clip-path="url(#p0d12596759)" d="M 138.072788 256.837813 
L 161.84795 256.837813 
L 161.84795 255.44656 
L 138.072788 255.44656 
z
" style="fill:#1f77b4;"/>
   </g>
   <g id="patch_13">
    <path clip-path="url(#p0d12596759)" d="M 256.9486 256.837813 
L 280.723762 256.837813 
L 280.723762 255.96828 
L 256.9486 255.96828 
z
" style="fill:#1f77b4;"/>
   </g>
   <g id="patch_14">
    <path clip-path="url(#p0d12596759)" d="M 375.824412 256.837813 
L 399.599574 256.837813 
L 399.599574 255.620467 
L 375.824412 255.620467 
z
" style="fill:#1f77b4;"/>
   </g>
   <g id="matplotlib.axis_1">
    <g id="xtick_1">
     <g id="line2d_1">
      <defs>
       <path d="M 0 0 
L 0 3.5 
" id="mca3387ad0e" style="stroke:#000000;stroke-width:0.8;"/>
      </defs>
      <g>
       <use style="stroke:#000000;stroke-width:0.8;" x="114.297626" xlink:href="#mca3387ad0e" y="256.837813"/>
      </g>
     </g>
     <g id="text_1">
      <text style="font-family:DejaVu Sans;font-size:10px;font-style:normal;font-weight:normal;text-anchor:middle;" transform="rotate(-0, 114.297626, 271.43625)" x="114.297626" y="271.43625">Original model</text>
     </g>
    </g>
    <g id="xtick_2">
     <g id="line2d_2">
      <g>
       <use style="stroke:#000000;stroke-width:0.8;" x="233.173437" xlink:href="#mca3387ad0e" y="256.837813"/>
      </g>
     </g>
     <g id="text_2">
      <text style="font-family:DejaVu Sans;font-size:10px;font-style:normal;font-weight:normal;text-anchor:middle;" transform="rotate(-0, 233.173437, 271.43625)" x="233.173437" y="271.43625">Saw obstacle edit</text>
     </g>
    </g>
    <g id="xtick_3">
     <g id="line2d_3">
      <g>
       <use style="stroke:#000000;stroke-width:0.8;" x="352.049249" xlink:href="#mca3387ad0e" y="256.837813"/>
      </g>
     </g>
     <g id="text_3">
      <text style="font-family:DejaVu Sans;font-size:10px;font-style:normal;font-weight:normal;text-anchor:middle;" transform="rotate(-0, 352.049249, 271.43625)" x="352.049249" y="271.43625">Enemy moving left edit</text>
     </g>
    </g>
   </g>
   <g id="matplotlib.axis_2">
    <g id="ytick_1">
     <g id="line2d_4">
      <defs>
       <path d="M 0 0 
L -3.5 0 
" id="m3c16f49b6d" style="stroke:#000000;stroke-width:0.8;"/>
      </defs>
      <g>
       <use style="stroke:#000000;stroke-width:0.8;" x="50.104688" xlink:href="#m3c16f49b6d" y="256.837813"/>
      </g>
     </g>
     <g id="text_4">
      <text style="font-family:DejaVu Sans;font-size:10px;font-style:normal;font-weight:normal;text-anchor:end;" transform="rotate(-0, 43.104688, 260.637031)" x="43.104688" y="260.637031">0%</text>
     </g>
    </g>
    <g id="ytick_2">
     <g id="line2d_5">
      <g>
       <use style="stroke:#000000;stroke-width:0.8;" x="50.104688" xlink:href="#m3c16f49b6d" y="222.056502"/>
      </g>
     </g>
     <g id="text_5">
      <text style="font-family:DejaVu Sans;font-size:10px;font-style:normal;font-weight:normal;text-anchor:end;" transform="rotate(-0, 43.104688, 225.855721)" x="43.104688" y="225.855721">2%</text>
     </g>
    </g>
    <g id="ytick_3">
     <g id="line2d_6">
      <g>
       <use style="stroke:#000000;stroke-width:0.8;" x="50.104688" xlink:href="#m3c16f49b6d" y="187.275191"/>
      </g>
     </g>
     <g id="text_6">
      <text style="font-family:DejaVu Sans;font-size:10px;font-style:normal;font-weight:normal;text-anchor:end;" transform="rotate(-0, 43.104688, 191.07441)" x="43.104688" y="191.07441">4%</text>
     </g>
    </g>
    <g id="ytick_4">
     <g id="line2d_7">
      <g>
       <use style="stroke:#000000;stroke-width:0.8;" x="50.104688" xlink:href="#m3c16f49b6d" y="152.493881"/>
      </g>
     </g>
     <g id="text_7">
      <text style="font-family:DejaVu Sans;font-size:10px;font-style:normal;font-weight:normal;text-anchor:end;" transform="rotate(-0, 43.104688, 156.293099)" x="43.104688" y="156.293099">6%</text>
     </g>
    </g>
    <g id="ytick_5">
     <g id="line2d_8">
      <g>
       <use style="stroke:#000000;stroke-width:0.8;" x="50.104688" xlink:href="#m3c16f49b6d" y="117.71257"/>
      </g>
     </g>
     <g id="text_8">
      <text style="font-family:DejaVu Sans;font-size:10px;font-style:normal;font-weight:normal;text-anchor:end;" transform="rotate(-0, 43.104688, 121.511789)" x="43.104688" y="121.511789">8%</text>
     </g>
    </g>
    <g id="ytick_6">
     <g id="line2d_9">
      <g>
       <use style="stroke:#000000;stroke-width:0.8;" x="50.104688" xlink:href="#m3c16f49b6d" y="82.931259"/>
      </g>
     </g>
     <g id="text_9">
      <text style="font-family:DejaVu Sans;font-size:10px;font-style:normal;font-weight:normal;text-anchor:end;" transform="rotate(-0, 43.104688, 86.730478)" x="43.104688" y="86.730478">10%</text>
     </g>
    </g>
    <g id="ytick_7">
     <g id="line2d_10">
      <g>
       <use style="stroke:#000000;stroke-width:0.8;" x="50.104688" xlink:href="#m3c16f49b6d" y="48.149949"/>
      </g>
     </g>
     <g id="text_10">
      <text style="font-family:DejaVu Sans;font-size:10px;font-style:normal;font-weight:normal;text-anchor:end;" transform="rotate(-0, 43.104688, 51.949167)" x="43.104688" y="51.949167">12%</text>
     </g>
    </g>
    <g id="text_11">
     <text style="font-family:DejaVu Sans;font-size:10px;font-style:normal;font-weight:normal;text-anchor:middle;" transform="rotate(-90, 14.798438, 140.337813)" x="14.798438" y="140.337813">Percentage of levels failed</text>
    </g>
   </g>
   <g id="patch_15">
    <path d="M 50.104688 256.837813 
L 50.104688 23.837813 
" style="fill:none;stroke:#000000;stroke-linecap:square;stroke-linejoin:miter;stroke-width:0.8;"/>
   </g>
   <g id="patch_16">
    <path d="M 416.242188 256.837813 
L 416.242188 23.837813 
" style="fill:none;stroke:#000000;stroke-linecap:square;stroke-linejoin:miter;stroke-width:0.8;"/>
   </g>
   <g id="patch_17">
    <path d="M 50.104687 256.837813 
L 416.242188 256.837813 
" style="fill:none;stroke:#000000;stroke-linecap:square;stroke-linejoin:miter;stroke-width:0.8;"/>
   </g>
   <g id="patch_18">
    <path d="M 50.104687 23.837813 
L 416.242188 23.837813 
" style="fill:none;stroke:#000000;stroke-linecap:square;stroke-linejoin:miter;stroke-width:0.8;"/>
   </g>
   <g id="text_12">
    <text style="font-family:DejaVu Sans;font-size:14px;font-style:normal;font-weight:normal;text-anchor:middle;" transform="rotate(-0, 233.173438, 17.837813)" x="233.173438" y="17.837813">Failure rate by cause</text>
   </g>
   <g id="legend_1">
    <g id="patch_19">
     <path d="M 275.679688 105.228438 
L 409.242188 105.228438 
Q 411.242188 105.228438 411.242188 103.228438 
L 411.242188 30.837813 
Q 411.242188 28.837813 409.242188 28.837813 
L 275.679688 28.837813 
Q 273.679688 28.837813 273.679688 30.837813 
L 273.679688 103.228438 
Q 273.679688 105.228438 275.679688 105.228438 
z
" style="fill:#ffffff;opacity:0.8;stroke:#cccccc;stroke-linejoin:miter;"/>
    </g>
    <g id="text_13">
     <text style="font-family:DejaVu Sans;font-size:10px;font-style:normal;font-weight:bold;text-anchor:start;" transform="rotate(-0, 322.514844, 40.43625)" x="322.514844" y="40.43625">Causes</text>
    </g>
    <g id="patch_20">
     <path d="M 277.679688 55.114375 
L 297.679688 55.114375 
L 297.679688 48.114375 
L 277.679688 48.114375 
z
" style="fill:#df6060;"/>
    </g>
    <g id="text_14">
     <text style="font-family:DejaVu Sans;font-size:10px;font-style:normal;font-weight:normal;text-anchor:start;" transform="rotate(-0, 305.679688, 55.114375)" x="305.679688" y="55.114375">Saw obstacle</text>
    </g>
    <g id="patch_21">
     <path d="M 277.679688 69.7925 
L 297.679688 69.7925 
L 297.679688 62.7925 
L 277.679688 62.7925 
z
" style="fill:#b0df60;"/>
    </g>
    <g id="text_15">
     <text style="font-family:DejaVu Sans;font-size:10px;font-style:normal;font-weight:normal;text-anchor:start;" transform="rotate(-0, 305.679688, 69.7925)" x="305.679688" y="69.7925">Enemy moving left</text>
    </g>
    <g id="patch_22">
     <path d="M 277.679688 84.470625 
L 297.679688 84.470625 
L 297.679688 77.470625 
L 277.679688 77.470625 
z
" style="fill:#60df87;"/>
    </g>
    <g id="text_16">
     <text style="font-family:DejaVu Sans;font-size:10px;font-style:normal;font-weight:normal;text-anchor:start;" transform="rotate(-0, 305.679688, 84.470625)" x="305.679688" y="84.470625">Enemy moving right</text>
    </g>
    <g id="patch_23">
     <path d="M 277.679688 99.14875 
L 297.679688 99.14875 
L 297.679688 92.14875 
L 277.679688 92.14875 
z
" style="fill:#1f77b4;"/>
    </g>
    <g id="text_17">
     <text style="font-family:DejaVu Sans;font-size:10px;font-style:normal;font-weight:normal;text-anchor:start;" transform="rotate(-0, 305.679688, 99.14875)" x="305.679688" y="99.14875">Multiple or other</text>
    </g>
   </g>
  </g>
 </g>
 <defs>
  <clipPath id="p0d12596759">
   <rect height="233" width="366.1375" x="50.104688" y="23.837813"/>
  </clipPath>
 </defs>
</svg>
